# AST/ASF file generated using VICON BodyLanguage
# -----------------------------------------------
:version 1.10
:name VICON
:units
  mass 1.0
  length 0.45
  angle deg
:documentation
   .ast/.asf automatically generated from VICON data using
   VICON BodyBuilder and BodyLanguage model FoxedUp or BRILLIANT.MOD
:root
   order TX TY TZ RX RY RZ
   axis XYZ
   position 0 0 0  
   orientation 0 0 0 
:bonedata
  begin
     id 1 
     name lhipjoint
     direction 0.602128 -0.715006 0.355257 
     length 2.21237 
     axis 0 0 0  XYZ
  end
  begin
     id 2 
     name lfemur
     direction 0.34202 -0.939693 0  
     length 6.71649  
     axis 0 0 20  XYZ
    dof rx ry rz
    limits (-160.0 20.0)
           (-70.0 70.0)
           (-60.0 70.0)
  end
  begin
     id 3 
     name ltibia
     direction 0.34202 -0.939693 0   
     length 6.97123   
     axis 0 0 20   XYZ
    dof rx
    limits (-10.0 170.0)
  end
  begin
     id 4 
     name lfoot
     direction 0.0655697 -0.180151 0.981451   
     length 1.80924   
     axis -90 7.62852e-016 20   XYZ
    dof rx rz
    limits (-45.0 90.0)
           (-70.0 20.0)
  end
  begin
     id 5 
     name ltoes
     direction 1.53545e-011 -4.21827e-011 1   
     length 0.916331   
     axis -90 7.62852e-016 20   XYZ
    dof rx
    limits (-90.0 20.0)
  end
  begin
     id 6 
     name rhipjoint
     direction -0.625414 -0.698792 0.347201   
     length 2.2637  
     axis 0 0 0  XYZ 
  end
  begin
     id 7 
     name rfemur
     direction -0.34202 -0.939693 0   
     length 7.07595   
     axis 0 0 -20   XYZ
    dof rx ry rz
    limits (-160.0 20.0)
           (-70.0 70.0)
           (-70.0 60.0)
  end
  begin
     id 8 
     name rtibia
     direction -0.34202 -0.939693 0   
     length 7.22924   
     axis 0 0 -20   XYZ
    dof rx
    limits (-10.0 170.0)
 end
 begin
     id 9 
     name rfoot
     direction -0.0766747 -0.210662 0.974547   
     length 1.98482  
     axis -90 -7.62852e-016 -20   XYZ
    dof rx rz
    limits (-45.0 90.0)
           (-20.0 70.0)
  end
  begin
     id 10 
     name rtoes
     direction -1.53532e-011 -4.21867e-011 1   
     length 0.999842   
     axis -90 -7.62852e-016 -20   XYZ
    dof rx
    limits (-90.0 20.0)
  end
  begin
     id 11 
     name lowerback
     direction -0.0224668 0.997354 -0.0691422   
     length 2.09945   
     axis 0 0 0   XYZ
    dof rx ry rz
    limits (-20.0 45.0)
           (-30.0 30.0)
           (-30.0 30.0)
  end
  begin
     id 12 
     name upperback
     direction 0.0134698 0.998451 -0.0539888   
     length 2.09758   
     axis 0 0 0   XYZ
    dof rx ry rz
    limits (-20.0 45.0)
           (-30.0 30.0)
           (-30.0 30.0)
  end
  begin
     id 13 
     name thorax
     direction 0.0241905 0.99948 -0.0213333   
     length 2.10428   
     axis 0 0 0   XYZ
    dof rx ry rz
    limits (-20.0 45.0)
           (-30.0 30.0)
           (-30.0 30.0)
  end
  begin
     id 14 
     name lowerneck
     direction -0.00866847 0.995978 0.0891737   
     length 1.3959   
     axis 0 0 0   XYZ
    dof rx ry rz
    limits (-20.0 45.0)
           (-30.0 30.0)
           (-30.0 30.0)
  end
  begin
     id 15 
     name upperneck
     direction 0.0680679 0.992203 0.104404   
     length 1.39452   
     axis 0 0 0   XYZ
    dof rx ry rz
    limits (-20.0 45.0)
           (-30.0 30.0)
           (-30.0 30.0)
  end
  begin
     id 16
     name head
     direction 0.0242216 0.999358 0.0264054  
     length 1.40433  
     axis 0 0 0   XYZ
    dof rx ry rz
    limits (-20.0 45.0)
           (-30.0 30.0)
           (-30.0 30.0)
  end
  begin
     id 17 
     name lclavicle
     direction 0.929368 0.362991 -0.0671771  
     length 3.04887  
     axis 0 0 0   XYZ
    dof ry rz
    limits (-20.0 10.0)
           (0.0 20.0)
  end
  begin
     id 18 
     name lhumerus
     direction 1 -4.48967e-011 -7.13741e-028   
     length 4.77195   
     axis -180 -30 -90   XYZ
    dof rx ry rz
    limits (-60.0 90.0)
           (-90.0 90.0)
           (-90.0 90.0)
  end
  begin
     id 19
     name lradius
     direction 1 -4.48977e-011 3.60404e-027   
     length 2.98444   
     axis -180 -30 -90   XYZ
    dof rx
    limits (-10.0 170.0)
  end
  begin
     id 20
     name lwrist
     direction 1 -4.48997e-011 7.54877e-027   
     length 1.49222   
     axis -7.18178e-015 90 90   XYZ
    dof ry
    limits (-180.0 0.0)
 end
  begin
     id 21 
     name lhand
     direction 1 -4.489e-011 1.51105e-026   
     length 0.992285   
     axis -9.63605e-015 90 90   XYZ
    dof rx rz
    limits (-90.0 90.0)
           (-45.0 45.0)
  end
  begin
     id 22 
     name lfingers
     direction 1 -4.48998e-011 3.01948e-026   
     length 0.800006   
     axis -1.92718e-014 90 90   XYZ
    dof rx
    limits (0.0 90.0)
  end
  begin
     id 23
     name lthumb
     direction 0.707107 -6.34881e-011 0.707107   
     length 1.14865   
     axis -90 45 -3.53137e-014   XYZ
    dof rx rz
    limits (-45.0 45.0)
           (-45.0 45.0)
  end
  begin
     id 24 
     name rclavicle
     direction -0.945672 0.324529 0.0196374   
     length 3.4236  
     axis 0 0 0   XYZ 
    dof ry rz
    limits (-10.0 20.0)
           (-20.0 0.0)
  end
  begin
     id 25 
     name rhumerus
     direction -1 -4.4896e-011 1.02757e-029  
     length 4.62052   
     axis -180 30 90   XYZ
    dof rx ry rz
    limits (-90.0 60.0)
           (-90.0 90.0)
           (-90.0 90.0)
  end
  begin
     id 26 
     name rradius
     direction -1 -4.48982e-011 3.85962e-027   
     length 2.95332   
     axis -180 30 90   XYZ
    dof rx
    limits (-10.0 170.0)
  end
  begin
     id 27 
     name rwrist
     direction -1 -4.48961e-011 7.55118e-027   
     length 1.47666   
     axis -7.18178e-015 -90 -90   XYZ
    dof ry
    limits (-180.0 0.0)
  end
  begin
     id 28
     name rhand
     direction -1 -4.48984e-011 1.50994e-026   
     length 0.990956   
     axis -9.63605e-015 -90 -90   XYZ
    dof rx rz
    limits (-90.0 90.0)
           (-45.0 45.0)
  end
  begin
     id 29
     name rfingers
     direction -1 -4.4892e-011 3.02158e-026   
     length 0.798934   
     axis -1.92718e-014 -90 -90   XYZ
    dof rx
    limits (0.0 90.0)
  end
  begin
     id 30
     name rthumb
     direction -0.707107 -6.34916e-011 0.707107   
     length 1.14711   
     axis -90 -45 3.53137e-014   XYZ
    dof rx rz
    limits (-45.0 45.0)
           (-45.0 45.0)
  end
:hierarchy
  begin
    root lhipjoint rhipjoint lowerback
    lhipjoint lfemur
    lfemur ltibia
    ltibia lfoot
    lfoot ltoes
    rhipjoint rfemur
    rfemur rtibia
    rtibia rfoot
    rfoot rtoes
    lowerback upperback
    upperback thorax
    thorax lowerneck lclavicle rclavicle
    lowerneck upperneck
    upperneck head
    lclavicle lhumerus
    lhumerus lradius
    lradius lwrist
    lwrist lhand lthumb
    lhand lfingers
    rclavicle rhumerus
    rhumerus rradius
    rradius rwrist
    rwrist rhand rthumb
    rhand rfingers
  end

#!OML:ASF H:\ManfredObstacles\Project 1\Capture day 1\Session 1\Male.ASF
:FULLY-SPECIFIED
:DEGREES
233
root -0.543016 16.2334 29.8497 -161.382 -27.0946 -181.184
lowerback -0.542454 -0.572452 -2.19645
upperback 4.92931 -0.82371 -1.2665
thorax 5.41151 -0.555215 -0.133073
lowerneck -0.645299 -0.743678 -5.9688
upperneck 3.50081 -1.18546 7.22128
head 1.32051 -0.596207 3.38215
rclavicle 1.07344e-014 2.5842e-014
rhumerus -25.8185 -9.39474 -83.7831
rradius 35.1992
rwrist 26.9307
rhand -2.12695 -5.14093
rfingers 7.12502
rthumb 23.5516 -33.7189
lclavicle 1.07344e-014 2.5842e-014
lhumerus -20.3552 4.83077 84.996
lradius 24.157
lwrist -22.0287
lhand -8.97534 7.21257
lfingers 7.12502
lthumb 16.9702 36.4912
rfemur -38.9926 -14.1891 28.3841
rtibia 33.0714
rfoot -18.1886 4.04024
rtoes 9.84679
lfemur -34.5121 -4.19973 -17.2893
ltibia 51.5287
lfoot -12.6875 0.0650966
ltoes 1.29864
234
root -0.528438 16.2188 29.8044 -161.199 -28.104 -181.324
lowerback -0.415015 -0.637762 -2.22057
upperback 4.89352 -0.915423 -1.13262
thorax 5.30494 -0.601915 0.0171235
lowerneck -0.556285 -0.816019 -6.09111
upperneck 3.49062 -1.28095 7.19461
head 1.30948 -0.646461 3.3951
rclavicle 2.8625e-014 2.26615e-014
rhumerus -26.1017 -9.42916 -83.5498
rradius 35.4545
rwrist 26.2433
rhand -2.43075 -5.16285
rfingers 7.12502
rthumb 23.2602 -33.778
lclavicle 2.8625e-014 2.26615e-014
lhumerus -20.6469 5.91863 84.7747
lradius 23.3676
lwrist -22.9387
lhand -8.7936 6.70799
lfingers 7.12502
lthumb 17.1451 35.9715
rfemur -39.2702 -14.7532 28.5348
rtibia 33.7108
rfoot -18.8852 3.83986
rtoes 11.4167
lfemur -34.9783 -3.37379 -18.3858
ltibia 49.8759
lfoot -14.2272 0.526844
ltoes -1.22585
235
root -0.517828 16.2028 29.7555 -161.073 -29.0238 -181.376
lowerback -0.359826 -0.661047 -2.1169
upperback 4.85667 -0.949554 -1.07558
thorax 5.23424 -0.612856 0.0182234
lowerneck -0.553105 -0.916205 -5.97779
upperneck 3.57811 -1.41682 7.07446
head 1.34413 -0.71389 3.33004
rclavicle 5.78463e-014 1.78906e-014
rhumerus -26.3926 -9.79434 -83.4232
rradius 35.3699
rwrist 25.7998
rhand -2.95977 -5.03777
rfingers 7.12502
rthumb 22.7526 -33.7161
lclavicle 5.78463e-014 1.78906e-014
lhumerus -20.9971 6.57854 84.3986
lradius 22.7671
lwrist -23.3302
lhand -8.42635 6.16031
lfingers 7.12502
lthumb 17.4986 35.3928
rfemur -39.57 -15.31 28.7665
rtibia 34.4528
rfoot -19.4965 3.69473
rtoes 12.1457
lfemur -35.1783 -2.36879 -19.4707
ltibia 47.8724
lfoot -15.4284 0.857593
ltoes -0.855388
236
root -0.512392 16.191 29.7086 -160.909 -29.8307 -181.531
lowerback -0.35371 -0.675017 -2.07243
upperback 4.82599 -0.966459 -1.08457
thorax 5.19781 -0.617223 -0.0160473
lowerneck -0.670179 -1.02405 -5.87806
upperneck 3.79721 -1.56951 7.05534
head 1.44552 -0.787359 3.30327
rclavicle 4.77083e-015 3.02153e-014
rhumerus -26.7057 -10.3486 -83.3081
rradius 35.2344
rwrist 25.6431
rhand -3.29601 -4.97594
rfingers 7.12502
rthumb 22.4299 -33.6936
lclavicle 4.77083e-015 3.02153e-014
lhumerus -21.3016 6.95541 84.052
lradius 22.2985
lwrist -23.5739
lhand -8.07299 5.97128
lfingers 7.12502
lthumb 17.8386 35.1731
rfemur -39.8777 -15.7823 28.8437
rtibia 35.2277
rfoot -19.9915 3.36798
rtoes 10.903
lfemur -35.1901 -1.20131 -20.776
ltibia 45.6836
lfoot -16.1252 1.59872
ltoes -2.71217
237
root -0.509056 16.1621 29.6637 -160.794 -30.656 -181.56
lowerback -0.339434 -0.71616 -2.07202
upperback 4.745 -1.01953 -0.961151
thorax 5.10773 -0.641713 0.1106
lowerneck -0.781235 -1.14022 -5.96723
upperneck 4.13391 -1.74515 7.192
head 1.59132 -0.87388 3.36738
rclavicle 9.14409e-015 2.82274e-014
rhumerus -27.0851 -10.7001 -83.0695
rradius 35.2173
rwrist 25.4731
rhand -3.11093 -5.25047
rfingers 7.12502
rthumb 22.6075 -33.9466
lclavicle 9.14409e-015 2.82274e-014
lhumerus -21.5567 7.82183 83.7976
lradius 21.6869
lwrist -24.2492
lhand -7.84514 6.06472
lfingers 7.12502
lthumb 18.0578 35.2465
rfemur -40.2428 -16.1215 29.0041
rtibia 36.048
rfoot -20.4734 2.96442
rtoes 9.81293
lfemur -35.1296 -0.0716888 -21.8727
ltibia 43.4287
lfoot -16.4819 1.5267
ltoes -1.17244
238
root -0.510129 16.1301 29.6207 -160.696 -31.4728 -181.466
lowerback -0.428739 -0.787675 -2.01697
upperback 4.66745 -1.1123 -0.783287
thorax 5.08148 -0.684454 0.259125
lowerneck -1.02023 -1.15329 -5.92054
upperneck 4.48972 -1.77431 7.19748
head 1.75215 -0.884337 3.36248
rclavicle 7.15625e-014 -1.98785e-014
rhumerus -27.4099 -10.9706 -82.8017
rradius 35.1307
rwrist 25.473
rhand -2.99734 -5.23823
rfingers 7.12502
rthumb 22.7165 -33.921
lclavicle 7.15625e-014 -1.98785e-014
lhumerus -21.7517 9.01948 83.498
lradius 21.0462
lwrist -25.164
lhand -7.75482 6.05085
lfingers 7.12502
lthumb 18.1447 35.2245
rfemur -40.6931 -16.4742 29.301
rtibia 36.9211
rfoot -20.9306 2.87782
rtoes 11.142
lfemur -35.0649 1.07533 -22.8659
ltibia 41.257
lfoot -15.3121 3.19091
ltoes -1.58447
239
root -0.512245 16.1039 29.581 -160.745 -32.1974 -181.287
lowerback -0.523422 -0.838136 -1.90962
upperback 4.64853 -1.18054 -0.656056
thorax 5.11743 -0.714414 0.325935
lowerneck -1.23922 -1.17044 -5.72154
upperneck 4.79603 -1.81369 7.20215
head 1.89191 -0.897964 3.32762
rclavicle -1.98785e-014 2.88238e-014
rhumerus -27.6751 -11.433 -82.6195
rradius 34.911
rwrist 25.8014
rhand -3.02985 -4.98081
rfingers 7.12502
rthumb 22.6853 -33.6674
lclavicle -1.98785e-014 2.88238e-014
lhumerus -21.8618 10.3178 83.0406
lradius 20.3798
lwrist -26.2538
lhand -7.72574 5.83871
lfingers 7.12502
lthumb 18.1727 35.0098
rfemur -40.9737 -16.6422 29.567
rtibia 37.7249
rfoot -21.3685 2.88209
rtoes 14.0483
lfemur -34.6619 2.00338 -23.5541
ltibia 39.422
lfoot -14.6497 1.00307
ltoes 6.67727
240
root -0.515533 16.0717 29.5451 -160.903 -32.8177 -181.188
lowerback -0.46125 -0.873136 -1.88374
upperback 4.63721 -1.23036 -0.606565
thorax 5.07164 -0.738223 0.361585
lowerneck -1.48962 -1.22376 -5.48504
upperneck 5.1356 -1.91016 7.26782
head 2.05346 -0.937757 3.30613
rclavicle -7.63333e-014 3.51849e-014
rhumerus -27.9443 -12.0002 -82.4836
rradius 34.6134
rwrist 26.2395
rhand -2.82293 -4.94273
rfingers 7.12502
rthumb 22.8839 -33.6049
lclavicle -7.63333e-014 3.51849e-014
lhumerus -21.97 11.4222 82.5252
lradius 19.7415
lwrist -27.0877
lhand -7.69487 5.69916
lfingers 7.12502
lthumb 18.2024 34.8675
rfemur -41.0341 -16.5232 29.5612
rtibia 38.4895
rfoot -21.8876 2.7641
rtoes 17.3395
lfemur -34.2341 3.05199 -24.3576
ltibia 38.0333
lfoot -12.9297 3.04207
ltoes 5.30419
241
root -0.522056 16.0692 29.5176 -161.084 -33.3646 -181.195
lowerback -0.255703 -0.961253 -2.03565
upperback 4.62528 -1.35346 -0.502434
thorax 4.95116 -0.807452 0.552565
lowerneck -1.79429 -1.24062 -5.41903
upperneck 5.41741 -1.9444 7.32712
head 2.20505 -0.947205 3.31656
rclavicle 3.50855e-014 -1.74931e-014
rhumerus -28.2299 -12.1802 -82.2884
rradius 34.3456
rwrist 26.5357
rhand -2.71116 -4.84847
rfingers 7.12502
rthumb 22.9912 -33.4973
lclavicle 3.50855e-014 -1.74931e-014
lhumerus -22.166 12.0751 82.219
lradius 19.3534
lwrist -27.3382
lhand -7.73368 5.71079
lfingers 7.12502
lthumb 18.1651 34.8826
rfemur -40.9925 -16.1295 29.2652
rtibia 39.3917
rfoot -22.5396 2.20389
rtoes 18.3848
lfemur -33.438 4.07979 -25.1292
ltibia 36.9674
lfoot -13.1809 3.56931
ltoes 11.1009
242
root -0.527996 16.0618 29.5015 -161.296 -33.8155 -181.158
lowerback 0.026565 -1.07465 -2.25738
upperback 4.63143 -1.51567 -0.318831
thorax 4.8128 -0.901292 0.864925
lowerneck -2.01001 -1.24146 -5.47516
upperneck 5.59801 -1.93956 7.27001
head 2.30437 -0.942277 3.30999
rclavicle -3.52843e-014 -3.29983e-014
rhumerus -28.5779 -11.9085 -82.1218
rradius 34.294
rwrist 26.3876
rhand -2.75062 -4.68679
rfingers 7.12502
rthumb 22.9533 -33.3404
lclavicle -3.52843e-014 -3.29983e-014
lhumerus -22.3076 12.9015 81.9815
lradius 19.0394
lwrist -27.7436
lhand -7.71574 5.59024
lfingers 7.12502
lthumb 18.1823 34.7604
rfemur -41.1195 -15.3536 28.8406
rtibia 40.6014
rfoot -23.29 1.07812
rtoes 16.2966
lfemur -32.3953 4.57533 -25.4345
ltibia 36.1268
lfoot -14.203 3.39899
ltoes 11.4833
243
root -0.535137 16.004 29.4945 -161.447 -34.2282 -181.143
lowerback 0.274144 -1.13493 -2.28028
upperback 4.6706 -1.60726 -0.313352
thorax 4.71684 -0.949616 0.884657
lowerneck -2.23285 -1.34288 -5.3891
upperneck 5.68541 -2.08705 7.42677
head 2.3873 -1.00676 3.34547
rclavicle 3.44891e-014 -5.08889e-014
rhumerus -28.9706 -11.8663 -82.1944
rradius 34.5095
rwrist 26.0101
rhand -2.66593 -4.79925
rfingers 7.12502
rthumb 23.0345 -33.4427
lclavicle 3.44891e-014 -5.08889e-014
lhumerus -22.2232 13.2224 81.6973
lradius 18.7854
lwrist -28.042
lhand -7.63466 5.68696
lfingers 7.12502
lthumb 18.2603 34.8499
rfemur -41.6628 -14.54 28.3492
rtibia 42.2514
rfoot -24.2617 0.266323
rtoes 15.12
lfemur -31.929 4.23658 -25.3553
ltibia 35.52
lfoot -15.4272 3.82356
ltoes 12.6965
244
root -0.538954 15.95 29.4979 -161.458 -34.6414 -181.223
lowerback 0.527988 -1.23574 -2.36863
upperback 4.71553 -1.75211 -0.325615
thorax 4.62706 -1.02713 0.92124
lowerneck -2.51679 -1.37858 -5.20701
upperneck 5.85112 -2.14175 7.41029
head 2.49543 -1.02486 3.30543
rclavicle 0 2.54444e-014
rhumerus -29.2071 -11.7739 -82.3343
rradius 34.8827
rwrist 25.714
rhand -2.44099 -4.95634
rfingers 7.12502
rthumb 23.2504 -33.5727
lclavicle 0 2.54444e-014
lhumerus -22.0471 12.8922 81.5796
lradius 18.7615
lwrist -27.8485
lhand -7.54698 6.04797
lfingers 7.12502
lthumb 18.3447 35.203
rfemur -42.5647 -13.7299 27.6845
rtibia 44.3413
rfoot -23.2239 0.389277
rtoes 16.3857
lfemur -31.6941 3.92149 -25.3453
ltibia 35.2888
lfoot -16.3092 4.25326
ltoes 12.3811
